<?xml version="1.0" encoding="utf-8"?>
<!-- Generator: Adobe Illustrator 27.4.1, SVG Export Plug-In . SVG Version: 6.00 Build 0)  -->
<svg version="1.1" id="Layer_1" xmlns="http://www.w3.org/2000/svg" xmlns:xlink="http://www.w3.org/1999/xlink" x="0px" y="0px"
	 viewBox="0 0 40 40" style="enable-background:new 0 0 40 40;" xml:space="preserve">
<style type="text/css">
	.st0{fill:#101827;}
	.st1{fill:#BDE0F1;}
	.st2{fill:#51A0C9;}
</style>
<g>
	<rect x="0" y="0" class="st0" width="40" height="40"/>
	<g>
		<g>
			<g>
				<g>
					<path class="st1" d="M4.5,25.4c0,0.7,0.2,1,0.7,1c0.5,0,0.8-0.2,1-0.9l0.4,0.1c-0.3,1-1,1.3-1.6,1.3c-0.8,0-1.4-0.4-1.4-1.5
						c0-1.4,1-2.4,2-2.4c0.5,0,0.7,0.2,0.8,0.2c0.1,0,0.1-0.1,0.2-0.2h0.3l-0.2,1.2H6.3c0-0.6-0.2-0.9-0.6-0.9
						C4.8,23.3,4.5,24.6,4.5,25.4z"/>
				</g>
				<g>
					<path class="st1" d="M7.1,23.1l0.1-0.3h1.2l0,0.1c-0.1,0.7-0.7,3-0.7,3.5c0,0.1,0.1,0.2,0.2,0.2c0.1,0,0.2,0,0.2-0.1l0.1,0.2
						c-0.2,0.2-0.4,0.4-0.7,0.4c-0.3,0-0.6-0.1-0.6-0.6C7,26,7.1,25.6,7.2,25c0.1-0.6,0.2-1.2,0.4-1.8L7.1,23.1z"/>
				</g>
				<g>
					<path class="st1" d="M10.9,26c0,0,0,0.1,0,0.1c0,0.1,0,0.2,0.2,0.2c0.1,0,0.2-0.1,0.2-0.2l0.2,0.2c-0.1,0.2-0.4,0.4-0.7,0.4
						c-0.3,0-0.5-0.2-0.5-0.5c0-0.1,0-0.2,0-0.2l0,0c-0.1,0.4-0.5,0.7-1,0.7c-0.5,0-0.8-0.4-0.8-1C8.5,25,9,24,9.8,24
						c0.3,0,0.5,0.2,0.6,0.4l0.1-0.3c0.2,0,0.6,0,0.8,0C11.1,24.7,11,25.4,10.9,26z M10.3,24.8c0-0.3-0.1-0.5-0.3-0.5
						c-0.5,0-0.7,0.9-0.7,1.5c0,0.3,0.1,0.5,0.3,0.5C10,26.4,10.3,25.3,10.3,24.8z"/>
				</g>
				<g>
					<path class="st1" d="M13,26.1c0-0.5-1.1-0.3-1.1-1.2c0-0.6,0.5-0.9,1.2-0.9c0.5,0,0.9,0.2,0.9,0.6c0,0.2-0.1,0.4-0.4,0.4
						c-0.2,0-0.3-0.1-0.3-0.2c0-0.1,0-0.2,0.1-0.3h0.2c0,0,0,0,0-0.1c0-0.1-0.2-0.2-0.4-0.2c-0.3,0-0.5,0.1-0.5,0.4
						c0,0.5,1.2,0.3,1.2,1.2c0,0.6-0.6,1-1.3,1c-0.6,0-0.9-0.3-0.9-0.6c0-0.3,0.2-0.5,0.4-0.5c0.2,0,0.3,0.1,0.3,0.3
						c0,0.1,0,0.2-0.1,0.2H12c0,0,0,0,0,0.1c0,0.1,0.2,0.2,0.4,0.2C12.8,26.5,13,26.4,13,26.1z"/>
				</g>
				<g>
					<path class="st1" d="M15.4,26.1c0-0.5-1.1-0.3-1.1-1.2c0-0.6,0.5-0.9,1.2-0.9c0.5,0,0.9,0.2,0.9,0.6c0,0.2-0.1,0.4-0.4,0.4
						c-0.2,0-0.3-0.1-0.3-0.2c0-0.1,0-0.2,0.1-0.3h0.2c0,0,0,0,0-0.1c0-0.1-0.2-0.2-0.4-0.2c-0.3,0-0.5,0.1-0.5,0.4
						c0,0.5,1.2,0.3,1.2,1.2c0,0.6-0.6,1-1.3,1c-0.6,0-0.9-0.3-0.9-0.6c0-0.3,0.2-0.5,0.4-0.5c0.2,0,0.3,0.1,0.3,0.3
						c0,0.1,0,0.2-0.1,0.2h-0.2c0,0,0,0,0,0.1c0,0.1,0.2,0.2,0.4,0.2C15.2,26.5,15.4,26.4,15.4,26.1z"/>
				</g>
				<g>
					<path class="st1" d="M18.5,26.4c-0.5,0.9-0.9,1.5-1.6,1.5c-0.4,0-0.6-0.2-0.6-0.6c0-0.3,0.2-0.5,0.5-0.5c0.2,0,0.4,0.1,0.4,0.3
						c0,0.1,0,0.1,0,0.2l-0.2,0c0,0,0,0.1,0,0.1c0,0.1,0,0.1,0.2,0.1c0.2,0,0.5-0.3,0.8-0.7c-0.2-0.7-0.4-1.4-0.5-2.1
						c-0.1-0.2-0.1-0.3-0.2-0.3c-0.1,0-0.2,0.1-0.2,0.3l-0.3-0.1c0.1-0.4,0.3-0.7,0.8-0.7c0.3,0,0.5,0.2,0.6,0.5
						c0.2,0.6,0.3,1,0.4,1.6c0.3-0.5,0.6-1.1,0.6-1.3c0-0.1,0-0.2-0.1-0.2l-0.2,0.2c-0.2-0.1-0.3-0.2-0.3-0.4c0-0.3,0.2-0.5,0.5-0.5
						c0.3,0,0.5,0.2,0.5,0.6C19.3,25.1,18.8,25.9,18.5,26.4z"/>
				</g>
			</g>
			<g>
				<g>
					<path class="st1" d="M23.8,24.3h-0.4c0-0.7-0.1-0.8-0.5-0.8h-0.1l-0.5,2.9l0.5,0l-0.1,0.4H21l0.1-0.4l0.5,0l0.5-2.9h-0.2
						c-0.4,0-0.5,0.2-0.7,0.8h-0.4L21,23h3L23.8,24.3z"/>
				</g>
				<g>
					<path class="st1" d="M25.2,24c0.7,0,1.1,0.4,1.1,1c0,0.9-0.6,1.8-1.6,1.8c-0.8,0-1.1-0.4-1.1-1C23.6,24.9,24.2,24,25.2,24z
						 M25.5,24.8c0-0.3-0.1-0.5-0.3-0.5c-0.5,0-0.7,1-0.7,1.6c0,0.4,0.1,0.5,0.3,0.5C25.3,26.5,25.5,25.4,25.5,24.8z"/>
				</g>
				<g>
					<path class="st1" d="M28.8,26.5c-0.2,1-0.8,1.4-1.7,1.4c-0.5,0-0.8-0.2-0.8-0.6c0-0.3,0.2-0.5,0.5-0.5c0.2,0,0.4,0.1,0.4,0.4
						c0,0,0,0.1,0,0.1l-0.3,0c0,0,0,0,0,0.1c0,0.1,0.1,0.2,0.3,0.2c0.6,0,0.8-0.5,0.9-1c0.1-0.2,0.1-0.4,0.1-0.5l0,0
						c-0.1,0.4-0.4,0.7-0.9,0.7c-0.5,0-0.8-0.4-0.8-1c0-0.9,0.5-1.7,1.3-1.7c0.4,0,0.5,0.2,0.6,0.4l0.1-0.3c0.2,0,0.6,0,0.8,0
						C29.2,24.7,29,25.8,28.8,26.5z M28.3,24.8c0-0.3-0.1-0.5-0.3-0.5c-0.5,0-0.7,0.8-0.7,1.4c0,0.3,0.1,0.5,0.3,0.5
						C28,26.3,28.3,25.4,28.3,24.8z"/>
				</g>
				<g>
					<path class="st1" d="M31.8,26.5c-0.2,1-0.8,1.4-1.7,1.4c-0.5,0-0.8-0.2-0.8-0.6c0-0.3,0.2-0.5,0.5-0.5c0.2,0,0.4,0.1,0.4,0.4
						c0,0,0,0.1,0,0.1l-0.3,0c0,0,0,0,0,0.1c0,0.1,0.1,0.2,0.3,0.2c0.6,0,0.8-0.5,0.9-1c0.1-0.2,0.1-0.4,0.1-0.5l0,0
						c-0.1,0.4-0.4,0.7-0.9,0.7c-0.5,0-0.8-0.4-0.8-1c0-0.9,0.5-1.7,1.3-1.7c0.4,0,0.5,0.2,0.6,0.4l0.1-0.3c0.2,0,0.6,0,0.8,0
						C32.1,24.7,31.9,25.8,31.8,26.5z M31.3,24.8c0-0.3-0.1-0.5-0.3-0.5c-0.5,0-0.7,0.8-0.7,1.4c0,0.3,0.1,0.5,0.3,0.5
						C31,26.3,31.3,25.4,31.3,24.8z"/>
				</g>
				<g>
					<path class="st1" d="M32.7,23.1l0.1-0.3h1.2l0,0.1c-0.1,0.7-0.7,3-0.7,3.5c0,0.1,0.1,0.2,0.2,0.2c0.1,0,0.2,0,0.2-0.1l0.1,0.2
						c-0.2,0.2-0.4,0.4-0.7,0.4c-0.3,0-0.6-0.1-0.6-0.6c0-0.2,0.1-0.7,0.2-1.3c0.1-0.6,0.2-1.2,0.4-1.8L32.7,23.1z"/>
				</g>
				<g>
					<path class="st1" d="M36.4,24.6c0,0.9-1.1,1-1.6,1c0,0.5,0.1,0.7,0.4,0.7c0.3,0,0.5-0.2,0.7-0.6l0.3,0.1
						c-0.2,0.6-0.6,0.9-1.2,0.9c-0.7,0-1-0.4-1-1c0-0.9,0.6-1.8,1.6-1.8C36.1,24,36.4,24.2,36.4,24.6z M35.5,24.3
						c-0.3,0-0.5,0.4-0.6,1c0.5,0,0.8-0.2,0.8-0.7C35.7,24.4,35.6,24.3,35.5,24.3z"/>
				</g>
			</g>
		</g>
		<g>
			<path class="st2" d="M8.2,12.9c1,0,2,0.4,2.7,1.1c0.7,0.7,1.1,1.7,1.1,2.7c0,1-0.4,2-1.1,2.7c-0.7,0.7-1.7,1.1-2.7,1.1
				s-2-0.4-2.7-1.1c-0.7-0.7-1.1-1.7-1.1-2.7c0-1,0.4-2,1.1-2.7C6.2,13.3,7.2,12.9,8.2,12.9 M8.2,12.1c-2.5,0-4.6,2.1-4.6,4.6
				c0,2.5,2.1,4.6,4.6,4.6s4.6-2.1,4.6-4.6C12.8,14.2,10.7,12.1,8.2,12.1L8.2,12.1z"/>
			<path class="st2" d="M20,12.9c1,0,2,0.4,2.7,1.1c0.7,0.7,1.1,1.7,1.1,2.7c0,1-0.4,2-1.1,2.7C22,20.1,21,20.5,20,20.5
				s-2-0.4-2.7-1.1c-0.7-0.7-1.1-1.7-1.1-2.7c0-1,0.4-2,1.1-2.7C18,13.3,19,12.9,20,12.9 M20,12.1c-2.5,0-4.6,2.1-4.6,4.6
				c0,2.5,2.1,4.6,4.6,4.6s4.6-2.1,4.6-4.6C24.6,14.2,22.5,12.1,20,12.1L20,12.1z"/>
			<path class="st2" d="M31.8,12.9c1,0,2,0.4,2.7,1.1c0.7,0.7,1.1,1.7,1.1,2.7c0,1-0.4,2-1.1,2.7c-0.7,0.7-1.7,1.1-2.7,1.1
				c-1,0-2-0.4-2.7-1.1c-0.7-0.7-1.1-1.7-1.1-2.7c0-1,0.4-2,1.1-2.7C29.8,13.3,30.8,12.9,31.8,12.9 M31.8,12.1
				c-2.5,0-4.6,2.1-4.6,4.6c0,2.5,2.1,4.6,4.6,4.6s4.6-2.1,4.6-4.6C36.4,14.2,34.3,12.1,31.8,12.1L31.8,12.1z"/>
		</g>
	</g>
</g>
</svg>
