<?xml version="1.0" encoding="UTF-8"?><svg id="Layer_2" xmlns="http://www.w3.org/2000/svg" viewBox="0 0 1920 1920"><defs><style>.cls-1{fill:#101827;}.cls-2{fill:#bde0f1;}.cls-3{fill:#51a0c9;}</style></defs><g id="Layer_1-2"><rect class="cls-1" x="0" y="0" width="1920" height="1920"/><path class="cls-2" d="m215.9,1218.61c0,31.27,11.11,46,34.11,46s37.21-11.63,47.81-42.9l18.35,4.39c-13.44,49.62-50.13,60.47-75.2,60.47-40.31,0-67.97-21.19-67.97-71.07,0-69.26,46-115.51,94.07-115.51,24.55,0,33.34,10.34,38.25,10.34,3.88,0,5.43-3.36,8.27-8.01h15.76l-8.79,59.95h-18.86c-1.29-26.62-7.75-42.12-30.49-42.12-43.16,0-55.3,62.02-55.3,98.46Z"/><path class="cls-2" d="m342.78,1106.71l3.1-16.8h56.59l1.03,2.58c-6.46,32.82-32.56,146.27-32.56,165.65,0,5.68,2.84,8.27,7.75,8.27,3.36,0,7.24-2.07,11.63-6.46l6.98,8.27c-8.53,10.85-20.93,18.35-35.66,18.35s-27.39-6.2-27.39-26.62c0-11.89,4.91-32.56,10.85-62.28,5.69-27.13,11.89-59.18,17.57-88.12l-19.9-2.84Z"/><path class="cls-2" d="m522.38,1250.13c-.26,2.33-.52,4.65-.52,6.72,0,4.39,1.81,8.27,7.49,8.27,4.13,0,7.75-3.36,11.11-7.24l8.27,8.53c-6.72,10.85-19.38,20.16-33.34,20.16-15.76,0-24.29-8.27-24.29-23.26,0-3.1.77-7.75,1.81-11.63l-1.29-.26c-6.2,18.09-23.26,35.15-46,35.15-25.84,0-39.02-17.06-39.02-46.52,0-41.61,23.26-88.64,64.61-88.64,16.8,0,25.58,9.04,28.94,20.16l4.39-16.8c10.08,0,28.17-.26,36.95-1.81-6.98,33.08-13.95,64.09-19.12,97.17Zm-28.94-59.7c0-12.92-3.62-21.71-14.99-21.71-21.71,0-32.56,42.64-32.56,73.65,0,15.25,2.58,24.03,12.92,24.03,22.74,0,34.63-50.65,34.63-75.98Z"/><path class="cls-2" d="m622.64,1252.98c0-26.36-54.79-12.92-54.79-56.34,0-28.43,26.1-45.22,55.82-45.22,22.48,0,41.35,8.53,41.35,28.17,0,11.89-6.98,20.67-19.64,20.67-8.01,0-14.99-4.65-14.99-11.63,0-4.39,1.03-8.53,4.13-12.66h7.75c.26-.77.52-1.81.52-3.1,0-5.43-8.53-7.49-17.57-7.49-14.21,0-26.36,5.43-26.36,18.09,0,23.52,58.66,14.99,58.66,56.85,0,31.01-27.65,46.26-60.73,46.26-28.68,0-43.67-12.4-43.67-29.98,0-13.44,8.27-21.97,20.16-21.97,8.01,0,15.51,5.43,15.51,13.95,0,5.17-1.81,8.79-3.88,11.63h-8.01c-.52.77-.77,2.07-.77,3.1,0,6.2,8.53,8.79,19.9,8.79,17.06,0,26.62-6.72,26.62-19.12Z"/><path class="cls-2" d="m740.74,1252.98c0-26.36-54.79-12.92-54.79-56.34,0-28.43,26.1-45.22,55.82-45.22,22.48,0,41.35,8.53,41.35,28.17,0,11.89-6.98,20.67-19.64,20.67-8.01,0-14.99-4.65-14.99-11.63,0-4.39,1.03-8.53,4.13-12.66h7.75c.26-.77.52-1.81.52-3.1,0-5.43-8.53-7.49-17.57-7.49-14.21,0-26.36,5.43-26.36,18.09,0,23.52,58.66,14.99,58.66,56.85,0,31.01-27.65,46.26-60.73,46.26-28.68,0-43.67-12.4-43.67-29.98,0-13.44,8.27-21.97,20.16-21.97,8.01,0,15.51,5.43,15.51,13.95,0,5.17-1.81,8.79-3.88,11.63h-8.01c-.52.77-.77,2.07-.77,3.1,0,6.2,8.53,8.79,19.9,8.79,17.06,0,26.62-6.72,26.62-19.12Z"/><path class="cls-2" d="m885.7,1266.67c-26.36,42.12-45.48,71.58-76.75,71.58-19.12,0-30.24-11.63-30.24-26.62,0-16.28,10.34-25.07,22.48-25.07,10.08,0,17.31,4.91,17.31,16.54,0,2.58-.26,5.17-1.03,8.27l-11.63,1.81c-.77,1.29-1.03,2.84-1.03,4.13,0,3.36,1.29,5.68,7.24,5.68,11.89,0,25.58-13.44,37.47-32.04-8.01-33.08-17.06-68.48-25.33-98.46-2.84-10.85-4.39-14.73-9.05-14.73-4.91,0-7.24,5.43-11.63,15.76l-13.18-5.94c6.98-19.38,16.28-34.63,38.51-34.63,14.73,0,23.52,7.75,28.17,25.33,7.49,26.88,12.66,50.39,18.09,77.01,13.18-22.74,27.65-50.91,27.65-62.8,0-5.17-1.81-9.3-6.72-9.82l-7.24,9.56c-8.27-2.84-12.4-10.08-12.4-18.86,0-12.92,9.04-21.97,23.77-21.97,16.8,0,24.03,11.63,24.03,28.17,0,23.26-23,62.02-38.51,87.09Z"/><path class="cls-2" d="m1144.12,1164.34h-17.83c.52-32.3-6.72-40.57-24.29-40.57h-5.94l-23.77,138.26,22.22,2.07-3.36,19.64h-85.28l3.36-19.64,22.74-2.07,23.77-138.26h-8.27c-18.61,0-25.07,11.11-34.89,40.57h-19.12l13.18-61.51h146.01l-8.53,61.51Z"/><path class="cls-2" d="m1209.75,1151.42c35.92,0,50.65,19.38,50.65,50.13,0,42.12-26.88,85.02-75.72,85.02-36.7,0-51.17-19.38-51.17-49.87,0-43.67,27.39-85.28,76.23-85.28Zm12.4,40.31c0-15.25-4.39-24.81-16.28-24.81-23.77,0-33.6,48.58-33.6,78.82,0,17.31,4.39,25.07,15.76,25.07,24.29,0,34.11-52.46,34.11-79.08Z"/><path class="cls-2" d="m1384.7,1270.29c-9.82,47.81-39.02,67.97-79.85,67.97-23,0-39.54-9.04-39.54-28.43,0-13.96,8.79-23,21.97-23,9.56,0,18.35,5.43,18.35,18.35,0,2.33-.26,4.39-.77,6.98l-12.4,2.07c-.52,1.03-.77,2.33-.77,3.36,0,4.91,5.17,7.24,14.21,7.24,27.13,0,37.99-25.84,44.97-49.88,2.58-8.53,4.65-17.57,6.98-26.36l-1.81-.77c-6.72,18.86-20.67,33.59-42.9,33.59-26.36,0-39.8-17.06-39.8-46.52,0-41.35,23-83.47,63.57-83.47,17.57,0,26.1,9.04,29.72,20.16l4.39-16.8c10.08,0,27.91-.26,36.95-1.81-7.24,33.08-16.54,84.51-23.26,117.32Zm-25.33-78.04c0-14.47-4.13-23-14.47-23-22.22,0-32.56,38.25-32.56,68.74,0,13.44,2.84,23,14.21,23,19.64,0,32.82-43.16,32.82-68.74Z"/><path class="cls-2" d="m1526.83,1270.29c-9.82,47.81-39.02,67.97-79.85,67.97-23,0-39.54-9.04-39.54-28.43,0-13.96,8.79-23,21.97-23,9.56,0,18.35,5.43,18.35,18.35,0,2.33-.26,4.39-.77,6.98l-12.4,2.07c-.52,1.03-.77,2.33-.77,3.36,0,4.91,5.17,7.24,14.21,7.24,27.13,0,37.99-25.84,44.97-49.88,2.58-8.53,4.65-17.57,6.98-26.36l-1.81-.77c-6.72,18.86-20.67,33.59-42.9,33.59-26.36,0-39.8-17.06-39.8-46.52,0-41.35,23-83.47,63.57-83.47,17.57,0,26.1,9.04,29.72,20.16l4.39-16.8c10.08,0,27.91-.26,36.95-1.81-7.24,33.08-16.54,84.51-23.26,117.32Zm-25.33-78.04c0-14.47-4.13-23-14.47-23-22.22,0-32.56,38.25-32.56,68.74,0,13.44,2.84,23,14.21,23,19.64,0,32.82-43.16,32.82-68.74Z"/><path class="cls-2" d="m1569.72,1106.71l3.1-16.8h56.59l1.03,2.58c-6.46,32.82-32.56,146.27-32.56,165.65,0,5.68,2.84,8.27,7.75,8.27,3.36,0,7.24-2.07,11.63-6.46l6.98,8.27c-8.53,10.85-20.93,18.35-35.66,18.35s-27.39-6.2-27.39-26.62c0-11.89,4.91-32.56,10.85-62.28,5.69-27.13,11.89-59.18,17.57-88.12l-19.9-2.84Z"/><path class="cls-2" d="m1747,1182.95c0,41.35-53.24,46.52-75.2,47.29-.52,24.03,4.13,34.89,20.67,34.89,14.73,0,23.52-9.04,32.3-28.43l16.54,5.68c-8.79,27.91-30.75,44.19-59.7,44.19-31.53,0-48.58-18.09-48.58-49.62,0-43.93,28.17-85.54,74.94-85.54,24.29,0,39.02,11.11,39.02,31.53Zm-43.93-16.02c-14.21,0-24.55,18.35-28.69,45.74,21.97-1.81,39.28-8.01,39.28-31.27,0-9.56-3.62-14.47-10.59-14.47Z"/><path class="cls-3" d="m393.24,618.83c48.92,0,94.92,19.05,129.51,53.65,34.59,34.59,53.65,80.59,53.65,129.51s-19.05,94.92-53.65,129.51c-34.59,34.59-80.59,53.65-129.51,53.65s-94.92-19.05-129.51-53.65c-34.59-34.59-53.65-80.59-53.65-129.51s19.05-94.92,53.65-129.51c34.59-34.59,80.59-53.65,129.51-53.65m0-37.08c-121.64,0-220.24,98.61-220.24,220.24s98.61,220.24,220.24,220.24,220.24-98.61,220.24-220.24-98.61-220.24-220.24-220.24h0Z"/><path class="cls-3" d="m960,618.83c48.92,0,94.92,19.05,129.51,53.65,34.59,34.59,53.65,80.59,53.65,129.51s-19.05,94.92-53.65,129.51c-34.59,34.59-80.59,53.65-129.51,53.65s-94.92-19.05-129.51-53.65c-34.59-34.59-53.65-80.59-53.65-129.51s19.05-94.92,53.65-129.51c34.59-34.59,80.59-53.65,129.51-53.65m0-37.08c-121.64,0-220.24,98.61-220.24,220.24s98.61,220.24,220.24,220.24,220.24-98.61,220.24-220.24-98.61-220.24-220.24-220.24h0Z"/><path class="cls-3" d="m1526.76,618.83c48.92,0,94.92,19.05,129.51,53.65,34.59,34.59,53.65,80.59,53.65,129.51s-19.05,94.92-53.65,129.51c-34.59,34.59-80.59,53.65-129.51,53.65s-94.92-19.05-129.51-53.65c-34.59-34.59-53.65-80.59-53.65-129.51s19.05-94.92,53.65-129.51c34.59-34.59,80.59-53.65,129.51-53.65m0-37.08c-121.64,0-220.24,98.61-220.24,220.24s98.61,220.24,220.24,220.24,220.24-98.61,220.24-220.24-98.61-220.24-220.24-220.24h0Z"/></g></svg>